<svg width="245" height="172" viewBox="0 0 245 172" fill="none" xmlns="http://www.w3.org/2000/svg">
<path d="M87.9999 14C91.8913 14.8092 93.5317 16.183 96.3124 19.0625C97.1 19.8759 97.8876 20.6893 98.6991 21.5273C101.306 24.3295 103.824 27.1966 106.324 30.0938C110.284 34.5981 114.392 38.6443 119.223 42.2109C120.288 43.0006 120.288 43.0006 121.375 43.8062C122.179 44.3971 122.179 44.3971 123 45C123.923 44.0609 124.847 43.1218 125.798 42.1543C129.218 38.6804 132.647 35.2164 136.08 31.7554C137.566 30.2545 139.049 28.7509 140.529 27.2446C142.654 25.0831 144.789 22.9313 146.926 20.7812C147.92 19.7641 147.92 19.7641 148.934 18.7264C149.554 18.1058 150.174 17.4852 150.814 16.8457C151.63 16.0196 151.63 16.0196 152.462 15.1769C154 14 154 14 157 14C157.164 28.8558 157.287 43.7114 157.363 58.5679C157.399 65.4666 157.448 72.3648 157.528 79.2632C157.605 85.9222 157.646 92.5805 157.664 99.2401C157.677 101.779 157.702 104.318 157.74 106.857C157.791 110.417 157.798 113.975 157.795 117.535C157.832 119.105 157.832 119.105 157.871 120.707C157.806 127.297 156.508 130.675 151.803 135.343C150.911 136.163 150.911 136.163 150 137C148.971 138.053 147.946 139.109 146.926 140.171C145.914 141.177 144.9 142.179 143.883 143.18C143.34 143.719 142.797 144.257 142.238 144.813C140.536 146.503 138.831 148.189 137.125 149.875C134.854 152.12 132.586 154.367 130.32 156.617C129.8 157.129 129.281 157.64 128.745 158.167C126.03 160.823 126.03 160.823 124 164C119.997 163.477 118.515 161.675 115.969 158.652C112.558 154.727 109.049 150.962 105.344 147.316C104.865 146.844 104.387 146.371 103.894 145.884C101.927 143.944 99.9556 142.008 97.9804 140.076C96.5138 138.64 95.0534 137.197 93.5937 135.754C92.7345 134.912 91.8753 134.069 90.9901 133.201C88.0954 130 87.8751 127.462 87.8797 123.311C87.8783 122.348 87.8769 121.385 87.8755 120.392C87.8791 119.337 87.8827 118.282 87.8864 117.195C87.8862 116.082 87.8861 114.97 87.8859 113.824C87.8866 110.139 87.8944 106.454 87.9023 102.77C87.9041 100.218 87.9055 97.6663 87.9065 95.1147C87.91 89.0799 87.9179 83.0451 87.9279 77.0103C87.9391 70.1398 87.9446 63.2692 87.9496 56.3987C87.96 42.2658 87.9776 28.1329 87.9999 14Z" fill="#FCFCFC"/>
<path d="M60.9999 7C64.8124 6.97113 68.6248 6.95325 72.4374 6.9375C73.526 6.92912 74.6146 6.92074 75.7362 6.91211C76.7707 6.90889 77.8052 6.90566 78.871 6.90234C79.8293 6.89711 80.7877 6.89187 81.775 6.88647C83.9999 7 83.9999 7 84.9999 8C85.0957 9.51819 85.1218 11.0408 85.1201 12.562C85.1215 13.5479 85.1229 14.5337 85.1243 15.5494C85.1207 16.6398 85.1171 17.7303 85.1134 18.8538C85.1136 19.9951 85.1137 21.1364 85.1138 22.3123C85.1131 26.1053 85.1054 29.8984 85.0975 33.6914C85.0957 36.3131 85.0943 38.9349 85.0933 41.5566C85.0901 47.765 85.0819 53.9734 85.0719 60.1818C85.0607 67.2482 85.0552 74.3146 85.0502 81.381C85.0397 95.9207 85.0221 110.46 84.9999 125C81.3579 123.63 79.3411 122.646 76.9374 119.562C73.3082 115.177 69.2458 111.452 64.9996 107.682C61.0962 104.193 61.0962 104.193 59.9999 102C59.9013 99.0813 59.8636 96.1865 59.8705 93.2676C59.8687 92.3634 59.867 91.4593 59.8652 90.5277C59.8608 87.5289 59.8637 84.5301 59.8671 81.5312C59.8664 79.4538 59.8654 77.3764 59.8642 75.299C59.8627 70.941 59.8648 66.5831 59.8695 62.2251C59.8752 56.6293 59.8719 51.0335 59.8659 45.4377C59.8623 41.1467 59.8635 36.8558 59.8661 32.5648C59.8667 30.5011 59.8659 28.4373 59.8636 26.3736C59.8611 23.4931 59.8649 20.6128 59.8705 17.7324C59.8685 16.8731 59.8664 16.0138 59.8644 15.1285C59.8856 9.22853 59.8856 9.22853 60.9999 7Z" fill="#FDFDFD"/>
<path d="M160 7C167.59 7 175.18 7 183 7C185.097 9.09656 184.347 13.6039 184.447 16.501C184.498 17.8405 184.498 17.8405 184.549 19.207C184.848 27.5203 185.028 35.8362 185.17 44.1535C185.268 49.7335 185.405 55.3062 185.639 60.8823C187.302 101.436 187.302 101.436 177.956 112.338C173.6 116.934 168.648 121.098 163 124C162.01 124 161.02 124 160 124C160 85.39 160 46.78 160 7Z" fill="#FCFCFC"/>
<path d="M4.99981 63C8.45461 63.7478 9.72492 64.4566 11.9373 67.25C14.1616 70.0369 16.437 72.4224 19.1944 74.6644C24.9005 79.45 29.5487 83.6666 30.3938 91.3576C30.5663 95.351 30.4643 99.3048 30.3045 103.297C30.2827 105.025 30.2666 106.752 30.2559 108.48C30.2124 112.987 30.0899 117.488 29.9507 121.992C29.8238 126.601 29.7781 131.21 29.7225 135.82C29.6276 142.525 29.5101 149.229 29.3196 155.933C29.3028 156.638 29.286 157.343 29.2686 158.07C29.1167 162.883 29.1167 162.883 27.9998 164C26.3772 164.099 24.7504 164.131 23.1248 164.133C22.14 164.134 21.1551 164.135 20.1404 164.137C19.104 164.133 18.0676 164.129 16.9998 164.125C15.4452 164.131 15.4452 164.131 13.8592 164.137C12.8743 164.135 11.8895 164.134 10.8748 164.133C9.96473 164.132 9.05465 164.131 8.117 164.129C5.99981 164 5.99981 164 4.99981 163C4.90447 159.895 4.8743 156.812 4.88628 153.707C4.88614 152.731 4.88599 151.756 4.88584 150.751C4.88654 147.51 4.89433 144.268 4.90215 141.027C4.90402 138.787 4.90544 136.546 4.90644 134.306C4.91027 128.395 4.9201 122.485 4.93114 116.575C4.94135 110.549 4.94594 104.524 4.95098 98.498C4.96172 86.6654 4.9788 74.8327 4.99981 63Z" fill="#FCFCFC"/>
<path d="M237 63C237.99 63.33 238.98 63.66 240 64C239.67 97 239.34 130 239 164C231.41 164 223.82 164 216 164C215.659 153.959 215.385 143.922 215.223 133.876C215.145 129.21 215.039 124.548 214.868 119.884C213.639 85.5218 213.639 85.5218 221.14 77.2183C223.658 74.99 226.26 73.1063 229.113 71.3323C232.308 69.0763 234.621 66.0736 237 63Z" fill="#FDFEFC"/>
<path d="M38.8752 6.86716C39.86 6.86587 40.8449 6.86458 41.8596 6.86325C42.896 6.86712 43.9324 6.87099 45.0002 6.87497C46.5548 6.86917 46.5548 6.86917 48.1408 6.86325C49.1257 6.86454 50.1105 6.86583 51.1252 6.86716C52.0353 6.86829 52.9454 6.86942 53.883 6.87058C56.0002 6.99997 56.0002 6.99997 57.0002 7.99997C57.0954 10.7389 57.1257 13.4525 57.1137 16.1916C57.1139 17.0501 57.114 17.9085 57.1142 18.793C57.1135 21.6446 57.1057 24.4961 57.0979 27.3476C57.096 29.3192 57.0946 31.2907 57.0936 33.2623C57.0897 38.4622 57.0799 43.6622 57.0689 48.8621C57.0587 54.1639 57.0541 59.4657 57.049 64.7676C57.0383 75.1784 57.0212 85.5892 57.0002 96C53.0002 96 53.0002 96 50.5627 93.9883C49.2943 92.6637 49.2943 92.6637 48.0002 91.3125C47.1546 90.4424 46.3089 89.5722 45.4377 88.6758C43.8621 86.9462 42.3396 85.166 40.8869 83.332C39.2786 81.3441 37.8343 79.9029 35.8127 78.375C33.0002 76 33.0002 76 32.0002 73C31.9341 70.9038 31.9315 68.8054 31.9626 66.7085C31.9795 65.4106 31.9963 64.1127 32.0137 62.7755C32.0376 61.3581 32.0617 59.9408 32.0861 58.5234C32.1079 57.0728 32.1294 55.6221 32.1505 54.1715C32.196 51.1335 32.2452 48.0955 32.2971 45.0576C32.3634 41.1556 32.4206 37.2536 32.4751 33.3515C32.5179 30.3576 32.5653 27.3637 32.6142 24.3699C32.6372 22.9305 32.6587 21.4911 32.6787 20.0517C32.7074 18.0453 32.743 16.039 32.779 14.0327C32.7976 12.8892 32.8161 11.7458 32.8353 10.5677C33.1197 6.14037 34.8988 6.87209 38.8752 6.86716Z" fill="white"/>
<path d="M193.875 6.86719C194.86 6.8659 195.845 6.86461 196.859 6.86328C197.896 6.86715 198.932 6.87102 200 6.875C201.555 6.8692 201.555 6.8692 203.141 6.86328C204.125 6.86457 205.11 6.86586 206.125 6.86719C207.035 6.86832 207.945 6.86944 208.883 6.87061C211 7 211 7 212 8C212.888 16.3302 213.006 24.7773 213.222 33.1494C213.324 37.0289 213.467 40.8966 213.715 44.7698C215.42 72.1548 215.42 72.1548 207.071 82.0845C202.033 87.6798 196.285 92.8535 190 97C189.34 97 188.68 97 188 97C187.977 85.4131 187.959 73.8262 187.948 62.2393C187.943 56.8597 187.936 51.48 187.924 46.1003C187.914 40.9133 187.908 35.7262 187.905 30.5391C187.903 28.5554 187.9 26.5718 187.894 24.5882C187.887 21.8199 187.886 19.0517 187.886 16.2834C187.883 15.4548 187.879 14.6262 187.875 13.7725C187.888 6.87461 187.888 6.87461 193.875 6.86719Z" fill="white"/>
<path d="M212 91C212.023 100.37 212.041 109.741 212.052 119.111C212.057 123.462 212.064 127.812 212.075 132.163C212.086 136.358 212.092 140.553 212.095 144.748C212.097 146.352 212.1 147.956 212.106 149.56C212.113 151.799 212.114 154.038 212.114 156.277C212.116 157.554 212.118 158.831 212.12 160.146C212 163 212 163 211 164C209.292 164.087 207.581 164.107 205.871 164.098C204.319 164.093 204.319 164.093 202.736 164.088C201.648 164.08 200.559 164.071 199.438 164.062C197.799 164.056 197.799 164.056 196.127 164.049C193.418 164.037 190.709 164.021 188 164C187.537 157.069 187.226 150.142 187.011 143.199C186.922 140.847 186.799 138.496 186.642 136.147C185.303 115.617 185.303 115.617 191.946 107.46C195.658 103.525 199.641 99.9999 203.911 96.6839C206.088 94.999 206.088 94.999 208.143 92.788C210 91 210 91 212 91Z" fill="#FDFDFD"/>
<path d="M32 92C37.6224 93.1245 37.6224 93.1245 40.2617 96.125C40.8231 96.7489 41.3845 97.3728 41.9629 98.0156C42.532 98.6705 43.1011 99.3253 43.6875 100C44.8348 101.294 45.9845 102.586 47.1367 103.875C47.6391 104.45 48.1414 105.025 48.6589 105.617C49.9723 107.124 49.9723 107.124 52 108C52 108.66 52 109.32 52 110C52.99 110.33 53.98 110.66 55 111C57.1561 114.234 57.2491 115.096 57.2429 118.823C57.246 119.8 57.2491 120.778 57.2522 121.785C57.2451 122.838 57.2379 123.891 57.2305 124.977C57.2298 126.598 57.2298 126.598 57.2291 128.252C57.2261 130.537 57.2182 132.822 57.2058 135.106C57.1875 138.618 57.1853 142.129 57.1855 145.641C57.1806 147.857 57.1748 150.073 57.168 152.289C57.1669 153.346 57.1657 154.404 57.1646 155.493C57.1582 156.464 57.1518 157.435 57.1453 158.436C57.1395 159.725 57.1395 159.725 57.1337 161.04C57 163 57 163 56 164C48.41 164 40.82 164 33 164C32.67 140.24 32.34 116.48 32 92Z" fill="#FAFBFB"/>
<path d="M10.8751 6.86719C11.8599 6.8659 12.8447 6.86461 13.8594 6.86328C14.8958 6.86715 15.9322 6.87102 17.0001 6.875C18.5547 6.8692 18.5547 6.8692 20.1407 6.86328C21.1255 6.86457 22.1104 6.86586 23.1251 6.86719C24.0351 6.86832 24.9452 6.86944 25.8829 6.87061C28.0001 7 28.0001 7 29.0001 8C29.094 9.90244 29.1175 11.8084 29.1136 13.7131C29.1135 14.9343 29.1134 16.1555 29.1133 17.4137C29.1082 18.7563 29.103 20.0988 29.0977 21.4414C29.0958 22.8076 29.0944 24.1738 29.0934 25.54C29.0896 29.142 29.0798 32.744 29.0687 36.3459C29.0585 40.019 29.0539 43.6921 29.0489 47.3652C29.0381 54.5768 29.0211 61.7884 29.0001 69C25.8427 67.4949 23.7117 65.9483 21.2501 63.4453C20.5591 62.7479 19.8682 62.0505 19.1563 61.332C18.4447 60.6037 17.7332 59.8754 17.0001 59.125C16.2885 58.4044 15.5769 57.6838 14.8438 56.9414C13.5134 55.5936 12.185 54.2437 10.8594 52.8911C9.02714 50.9381 9.02714 50.9381 6.79229 49.3167C4.05309 45.776 4.48234 42.4676 4.57427 38.1133C4.57756 37.2557 4.58085 36.3981 4.58423 35.5145C4.59464 33.7064 4.61456 31.8984 4.64336 30.0906C4.68756 27.3122 4.70481 24.5346 4.71685 21.7559C4.73027 20 4.74519 18.2441 4.76177 16.4883C4.76916 15.6529 4.77654 14.8175 4.78415 13.9569C4.90254 6.87459 4.90254 6.87459 10.8751 6.86719Z" fill="white"/>
<path d="M221.656 6.86723C223.066 6.86529 223.066 6.86529 224.504 6.86332C225.493 6.86719 226.481 6.87106 227.5 6.87504C228.983 6.86924 228.983 6.86924 230.496 6.86332C231.436 6.86461 232.376 6.8659 233.344 6.86723C234.212 6.86836 235.08 6.86948 235.975 6.87065C238 7.00004 238 7.00004 239 8.00004C239.415 13.5338 239.529 19.0685 239.625 24.616C239.666 26.4815 239.728 28.3466 239.809 30.2107C240.477 45.6506 240.477 45.6506 236.901 51.3404C234.396 53.8464 231.849 55.9019 229 58C226.706 60.2248 224.483 62.4972 222.27 64.8008C220.884 66.2381 219.443 67.621 218 69C217.34 69 216.68 69 216 69C215.977 61.0639 215.959 53.1278 215.948 45.1916C215.943 41.5069 215.936 37.8222 215.925 34.1375C215.914 30.5843 215.908 27.0312 215.905 23.478C215.903 22.1196 215.9 20.7611 215.894 19.4027C215.887 17.5062 215.887 15.6097 215.887 13.7132C215.884 12.6317 215.882 11.5503 215.88 10.4361C216.089 6.19314 217.879 6.87213 221.656 6.86723Z" fill="white"/>
<path d="M59.9999 119C64.0632 119.831 65.797 121.435 68.7304 124.402C69.6153 125.292 70.5003 126.183 71.412 127.1C72.3279 128.036 73.2438 128.973 74.1874 129.938C75.5787 131.336 75.5787 131.336 76.998 132.764C85.1252 140.986 85.1252 140.986 85.1328 146.754C85.1347 148.159 85.1347 148.159 85.1367 149.592C85.1328 150.572 85.1289 151.552 85.1249 152.562C85.1307 154.039 85.1307 154.039 85.1367 155.545C85.1354 156.48 85.1341 157.415 85.1328 158.379C85.1316 159.241 85.1305 160.103 85.1293 160.99C84.9999 163 84.9999 163 83.9999 164C82.2922 164.087 80.581 164.107 78.871 164.098C77.3193 164.093 77.3193 164.093 75.7363 164.088C74.6477 164.08 73.559 164.071 72.4374 164.062C70.7987 164.056 70.7987 164.056 69.1269 164.049C66.4179 164.037 63.7089 164.021 60.9999 164C60.2017 161.188 59.8774 158.702 59.8864 155.782C59.8865 154.962 59.8866 154.141 59.8866 153.296C59.8918 152.42 59.897 151.543 59.9023 150.641C59.9037 149.736 59.9051 148.832 59.9066 147.9C59.9122 145.017 59.9247 142.133 59.9374 139.25C59.9425 137.293 59.947 135.336 59.9511 133.379C59.9621 128.586 59.9794 123.793 59.9999 119Z" fill="#F9FAFA"/>
<path d="M184 119C184 133.85 184 148.7 184 164C176.08 164 168.16 164 160 164C159.897 160.308 159.794 156.616 159.687 152.812C159.642 151.657 159.596 150.502 159.549 149.312C159.447 141.731 159.447 141.731 162.246 138.031C163.155 137.361 164.064 136.691 165 136C170.089 130.992 175.004 125.995 179.492 120.434C181 119 181 119 184 119Z" fill="white"/>
<path d="M61.0001 7C64.8126 6.97113 68.6251 6.95325 72.4376 6.9375C73.5262 6.92912 74.6149 6.92074 75.7365 6.91211C76.7709 6.90889 77.8054 6.90566 78.8712 6.90234C79.8296 6.89711 80.7879 6.89187 81.7753 6.88647C84.0001 7 84.0001 7 85.0001 8C85.0959 9.51819 85.122 11.0408 85.1204 12.562C85.1218 13.5479 85.1231 14.5337 85.1246 15.5494C85.121 16.6398 85.1174 17.7303 85.1137 18.8538C85.1138 19.9951 85.114 21.1364 85.1141 22.3123C85.1134 26.1053 85.1056 29.8984 85.0978 33.6914C85.0959 36.3131 85.0945 38.9349 85.0935 41.5566C85.0904 47.765 85.0822 53.9734 85.0722 60.1818C85.061 67.2482 85.0555 74.3146 85.0505 81.381C85.04 95.9207 85.0224 110.46 85.0001 125C82.5626 124.188 82.5626 124.188 80.0001 123C79.6701 122.01 79.3401 121.02 79.0001 120C79.6601 120 80.3201 120 81.0001 120C81.4951 120.99 81.4951 120.99 82.0001 122C82.3301 84.71 82.6601 47.42 83.0001 9C76.0701 9 69.1401 9 62.0001 9C61.9953 21.1355 62.0157 33.2702 62.0804 45.4055C62.1095 51.0407 62.1275 56.6755 62.1203 62.3108C62.1137 67.7511 62.1362 73.1906 62.1787 78.6308C62.1898 80.7043 62.1905 82.7779 62.1806 84.8515C62.1684 87.7607 62.1935 90.6674 62.2272 93.5764C62.215 94.4302 62.2027 95.284 62.1902 96.1637C62.3088 101.863 63.7334 104.712 67.7148 108.8C68.351 109.394 68.351 109.394 69.0001 110C64.994 108.16 62.1522 105.893 60.0001 102C59.3192 98.9243 59.3557 95.9533 59.4166 92.8135C59.4143 91.9087 59.412 91.004 59.4096 90.0718C59.4079 87.0942 59.4419 84.1181 59.4767 81.1406C59.4835 79.0689 59.4882 76.9972 59.4909 74.9255C59.5016 70.5912 59.5283 66.2574 59.568 61.9233C59.619 56.359 59.644 50.795 59.6589 45.2305C59.6737 39.9296 59.6989 34.6289 59.7267 29.3281C59.7341 27.8051 59.7341 27.8051 59.7416 26.2513C59.7578 23.3904 59.7812 20.5297 59.8073 17.6689C59.8115 16.8159 59.8158 15.9629 59.8202 15.0841C59.885 9.23027 59.885 9.23027 61.0001 7Z" fill="white"/>
<path d="M4.99981 63C8.60483 63.5983 8.90738 63.8742 11.2498 67.0625C12.1161 68.5166 12.1161 68.5166 12.9998 70C11.6665 70.6667 10.3331 71.3333 8.99981 72C8.66981 71.34 8.33981 70.68 7.99981 70C7.66981 100.36 7.33981 130.72 6.99981 162C13.5998 162 20.1998 162 26.9998 162C26.9998 136.26 26.9998 110.52 26.9998 84C27.6598 84.33 28.3198 84.66 28.9998 85C29.0229 95.1527 29.0407 105.305 29.0516 115.458C29.0568 120.172 29.0639 124.886 29.0752 129.599C29.0861 134.145 29.0921 138.69 29.0947 143.235C29.0965 144.973 29.1002 146.711 29.1055 148.449C29.1127 150.875 29.1138 153.301 29.1133 155.726C29.1169 156.452 29.1205 157.178 29.1242 157.926C29.1139 162.886 29.1139 162.886 27.9998 164C26.3772 164.099 24.7504 164.131 23.1248 164.133C22.14 164.134 21.1551 164.135 20.1404 164.137C19.104 164.133 18.0676 164.129 16.9998 164.125C15.4452 164.131 15.4452 164.131 13.8592 164.137C12.8743 164.135 11.8895 164.134 10.8748 164.133C9.96473 164.132 9.05465 164.131 8.117 164.129C5.99981 164 5.99981 164 4.99981 163C4.90447 159.895 4.8743 156.812 4.88628 153.707C4.88614 152.731 4.88599 151.756 4.88584 150.751C4.88654 147.51 4.89433 144.268 4.90215 141.027C4.90402 138.787 4.90544 136.546 4.90644 134.306C4.91027 128.395 4.9201 122.485 4.93114 116.575C4.94135 110.549 4.94594 104.524 4.95098 98.498C4.96172 86.6654 4.9788 74.8327 4.99981 63Z" fill="white"/>
<path d="M160 7C167.59 7 175.18 7 183 7C184.889 8.88885 184.12 11.6405 184.124 14.1532C184.121 15.038 184.117 15.9227 184.114 16.8342C184.114 17.761 184.114 18.6877 184.114 19.6425C184.113 22.7213 184.105 25.8001 184.098 28.8789C184.096 31.0074 184.094 33.1359 184.093 35.2644C184.09 40.8786 184.08 46.4928 184.069 52.1071C184.058 57.8311 184.054 63.5552 184.049 69.2793C184.038 80.5195 184.021 91.7598 184 103C183.67 103 183.34 103 183 103C183 71.98 183 40.96 183 9C176.07 9 169.14 9 162 9C162 45.63 162 82.26 162 120C162.99 120.33 163.98 120.66 165 121C164.34 121.99 163.68 122.98 163 124C162.01 124 161.02 124 160 124C160 85.39 160 46.78 160 7Z" fill="white"/>
<path d="M157 14C157.047 28.9596 157.082 43.9192 157.104 58.8788C157.114 65.8245 157.128 72.7701 157.151 79.7158C157.173 86.4137 157.185 93.1114 157.19 99.8093C157.193 102.37 157.201 104.93 157.211 107.491C157.226 111.066 157.228 114.641 157.227 118.216C157.234 119.284 157.241 120.353 157.249 121.453C157.246 122.423 157.243 123.394 157.241 124.394C157.242 125.24 157.244 126.086 157.246 126.958C157 129 157 129 155 131C154.505 75.065 154.505 75.065 154 18C153.34 19.32 152.68 20.64 152 22C150.68 22.6933 149.345 23.3562 148 24C146.315 25.5223 144.682 27.1031 143.086 28.7188C142.16 29.6507 141.235 30.5827 140.281 31.543C139.312 32.5285 138.344 33.5142 137.375 34.5C136.399 35.4861 135.422 36.4718 134.445 37.457C131.959 39.9673 129.479 42.4831 127 45C126.34 45.66 125.68 46.32 125 47C122.5 46.875 122.5 46.875 120 46C118.688 43.9375 118.688 43.9375 118 42C119.65 42.99 121.3 43.98 123 45C123.923 44.0609 124.847 43.1218 125.798 42.1543C129.218 38.6804 132.647 35.2164 136.08 31.7554C137.566 30.2545 139.049 28.7509 140.529 27.2446C142.654 25.0831 144.789 22.9313 146.926 20.7812C147.588 20.1032 148.251 19.4251 148.934 18.7264C149.554 18.1058 150.175 17.4852 150.814 16.8457C151.63 16.0196 151.63 16.0196 152.462 15.1769C154 14 154 14 157 14Z" fill="white"/>
<path d="M212 91C212.023 100.37 212.041 109.741 212.052 119.111C212.057 123.462 212.064 127.812 212.075 132.163C212.086 136.358 212.092 140.553 212.095 144.748C212.097 146.352 212.1 147.956 212.106 149.56C212.113 151.799 212.114 154.038 212.114 156.277C212.116 157.554 212.118 158.831 212.12 160.146C212 163 212 163 211 164C209.292 164.087 207.581 164.107 205.871 164.098C204.319 164.093 204.319 164.093 202.736 164.088C201.648 164.08 200.559 164.071 199.438 164.062C197.799 164.056 197.799 164.056 196.127 164.049C193.418 164.037 190.709 164.021 188 164C187.537 157.069 187.226 150.142 187.011 143.199C186.922 140.847 186.799 138.496 186.642 136.147C185.303 115.617 185.303 115.617 191.946 107.46C195.658 103.525 199.641 99.9999 203.911 96.6839C206.088 94.999 206.088 94.999 208.143 92.788C210 91 210 91 212 91ZM207.266 96.6523C206.53 97.4064 205.794 98.1605 205.035 98.9375C204.235 99.7496 203.435 100.562 202.611 101.398C200.914 103.131 199.219 104.865 197.525 106.602C196.724 107.414 195.923 108.226 195.098 109.062C194.36 109.817 193.623 110.571 192.864 111.348C191 113 191 113 189 113C189 129.5 189 146 189 163C195.93 163 202.86 163 210 163C210 140.56 210 118.12 210 95C208.721 94.885 208.721 94.885 207.266 96.6523Z" fill="white"/>
<path d="M87.9998 14C89.9373 14.375 89.9373 14.375 91.9998 15C92.3298 15.66 92.6598 16.32 92.9998 17C92.3398 17 91.6798 17 90.9998 17C90.6698 54.62 90.3398 92.24 89.9998 131C87.8615 127.793 87.7512 126.993 87.7593 123.311C87.7566 122.348 87.7538 121.385 87.751 120.392C87.7582 119.337 87.7654 118.282 87.7728 117.195C87.7725 116.082 87.7722 114.97 87.7719 113.824C87.7733 110.139 87.7889 106.454 87.8045 102.77C87.8082 100.218 87.8111 97.6663 87.8131 95.1147C87.8199 89.0798 87.8357 83.0451 87.8558 77.0103C87.8781 70.1398 87.8891 63.2692 87.8992 56.3987C87.9201 42.2657 87.9553 28.1329 87.9998 14Z" fill="white"/>
<path d="M237 63C237.99 63.33 238.98 63.66 240 64C239.67 97 239.34 130 239 164C231.41 164 223.82 164 216 164C216 137.93 216 111.86 216 85C216.33 85 216.66 85 217 85C217 110.74 217 136.48 217 163C223.93 163 230.86 163 238 163C237.67 130.99 237.34 98.98 237 66C235.35 67.32 233.7 68.64 232 70C233.293 67.1156 234.659 65.1278 237 63Z" fill="white"/>
<path d="M32 92C34.475 92.495 34.475 92.495 37 93C37.66 93.99 38.32 94.98 39 96C36.525 95.01 36.525 95.01 34 94C34 116.77 34 139.54 34 163C40.93 163 47.86 163 55 163C55 146.5 55 130 55 113C55.66 113.33 56.32 113.66 57 114C57.0253 120.96 57.0428 127.92 57.0549 134.88C57.06 137.25 57.0668 139.62 57.0754 141.99C57.0875 145.388 57.0932 148.786 57.0977 152.184C57.1028 153.25 57.108 154.317 57.1133 155.416C57.1134 156.887 57.1134 156.887 57.1135 158.388C57.1157 159.257 57.118 160.125 57.1203 161.02C57 163 57 163 56 164C48.41 164 40.82 164 33 164C32.67 140.24 32.34 116.48 32 92Z" fill="white"/>
<path d="M59.9999 119C64.3382 119.843 66.1877 121.879 69.2499 125.062C70.142 125.982 71.034 126.901 71.9531 127.848C72.6285 128.558 73.304 129.268 73.9999 130C72.6799 130.33 71.3599 130.66 69.9999 131C69.7731 130.443 69.5462 129.886 69.3124 129.312C67.7316 126.288 67.7316 126.288 62.9999 122C62.6699 135.53 62.3399 149.06 61.9999 163C68.9299 163 75.8599 163 82.9999 163C82.5049 151.12 82.5049 151.12 81.9999 139C84.9999 142 84.9999 142 85.3564 144.252C85.347 145.11 85.3377 145.968 85.3281 146.852C85.3229 147.785 85.3178 148.718 85.3124 149.68C85.2918 150.652 85.2712 151.624 85.2499 152.625C85.2448 153.605 85.2396 154.584 85.2343 155.594C85.154 162.846 85.154 162.846 83.9999 164C82.2922 164.087 80.581 164.107 78.871 164.098C77.3193 164.093 77.3193 164.093 75.7363 164.088C74.6477 164.08 73.559 164.071 72.4374 164.062C70.7987 164.056 70.7987 164.056 69.1269 164.049C66.4179 164.037 63.7089 164.021 60.9999 164C60.2017 161.188 59.8774 158.702 59.8864 155.782C59.8865 154.962 59.8866 154.141 59.8866 153.296C59.8918 152.42 59.897 151.543 59.9023 150.641C59.9037 149.736 59.9051 148.832 59.9066 147.9C59.9122 145.017 59.9247 142.133 59.9374 139.25C59.9425 137.293 59.947 135.336 59.9511 133.379C59.9621 128.586 59.9794 123.793 59.9999 119Z" fill="white"/>
<path d="M27 9C27.33 9 27.66 9 28 9C28 28.47 28 47.94 28 68C23.4621 65.7311 22.0532 63.9013 19 60C19.66 60 20.32 60 21 60C21.33 59.34 21.66 58.68 22 58C23.98 57.505 23.98 57.505 26 57C26.33 41.16 26.66 25.32 27 9Z" fill="white"/>
<path d="M152 16C152.99 16.33 153.98 16.66 155 17C152.494 21.7619 152.494 21.7619 150.198 22.8691C147.282 24.3692 145.388 26.388 143.086 28.7188C142.16 29.6507 141.235 30.5827 140.281 31.543C139.312 32.5285 138.344 33.5142 137.375 34.5C136.399 35.4861 135.422 36.4718 134.445 37.457C131.959 39.9673 129.479 42.4831 127 45C126.34 45.66 125.68 46.32 125 47C122.5 46.875 122.5 46.875 120 46C118.688 43.9375 118.688 43.9375 118 42C119.65 42.99 121.3 43.98 123 45C132.57 35.43 142.14 25.86 152 16Z" fill="white"/>
<path d="M180 122C180.66 122.33 181.32 122.66 182 123C181.43 123.466 180.859 123.931 180.272 124.411C167.916 134.196 167.916 134.196 161.516 147.938C161.151 153.015 161.422 157.948 162 163C161.67 163 161.34 163 161 163C158.92 140.838 158.92 140.838 163.426 135.168C166.319 132.324 169.59 130.179 173 128C174.438 126.796 175.86 125.571 177.25 124.312C178.158 123.549 179.065 122.786 180 122Z" fill="white"/>
<path d="M237 65C237.33 66.32 237.66 67.64 238 69C237.42 69.2538 236.84 69.5076 236.243 69.769C233.749 71.1376 232.103 72.67 230.109 74.6953C229.4 75.4107 228.691 76.1262 227.961 76.8633C226.867 77.9828 226.867 77.9828 225.75 79.125C225.005 79.8791 224.26 80.6332 223.492 81.4102C221.657 83.269 219.826 85.1324 218 87C217.67 86.01 217.34 85.02 217 84C219.204 81.7666 221.414 79.5391 223.625 77.3125C224.242 76.6867 224.86 76.0608 225.496 75.416C229.177 71.7159 232.933 68.2721 237 65Z" fill="white"/>
<path d="M209 93C209 96 209 96 207.348 97.9929C206.217 99.1005 206.217 99.1005 205.062 100.23C204.25 101.033 203.438 101.835 202.602 102.662C201.743 103.495 200.885 104.329 200 105.188C198.712 106.455 198.712 106.455 197.398 107.748C195.272 109.839 193.139 111.922 191 114C190.34 113.34 189.68 112.68 189 112C191.767 109.204 194.539 106.414 197.312 103.625C198.098 102.831 198.884 102.037 199.693 101.219C200.451 100.458 201.208 99.6977 201.988 98.9141C202.685 98.2123 203.381 97.5106 204.099 96.7876C206 95 206 95 209 93Z" fill="white"/>
<path d="M27 57C27 60.63 27 64.26 27 68C20.125 62.25 20.125 62.25 19 60C19.66 60 20.32 60 21 60C21.33 59.34 21.66 58.68 22 58C23.6823 57.4743 25.2268 57 27 57Z" fill="white"/>
<path d="M134 34C134.33 34.99 134.66 35.98 135 37C131.667 40.3333 128.333 43.6667 125 47C122.5 46.875 122.5 46.875 120 46C118.688 43.9375 118.688 43.9375 118 42C120.475 43.485 120.475 43.485 123 45C126.63 41.37 130.26 37.74 134 34Z" fill="white"/>
<path d="M237 63C237.99 63.33 238.98 63.66 240 64C239.67 71.26 239.34 78.52 239 86C238.67 86 238.34 86 238 86C237.67 79.4 237.34 72.8 237 66C235.35 67.32 233.7 68.64 232 70C233.293 67.1156 234.659 65.1278 237 63Z" fill="white"/>
<path d="M118 159C120.64 159.33 123.28 159.66 126 160C125.34 161.32 124.68 162.64 124 164C122.125 163.75 122.125 163.75 120 163C118.75 160.938 118.75 160.938 118 159Z" fill="#FEFEFF"/>
<path d="M163 124C165 125 165 125 165 125L163 124Z" fill="white"/>
<path d="M195 103C197 104 197 104 197 104L195 103Z" fill="white"/>
<path d="M121 43C123 44 123 44 123 44L121 43Z" fill="white"/>
<path d="M134 31C136 32 136 32 136 32L134 31Z" fill="white"/>
<path d="M142 23C144 24 144 24 144 24L142 23Z" fill="white"/>
</svg>
